# xmcd CD database file
#
# Track frame offsets:
#	150
#	29940
#	52900
#	74475
#	90700
#	113160
#	133222
#	151925
#	167135
#	192195
#
# Disc length: 2776 seconds
#
# Revision: 0
# Processed by: cddbd v1.5.1PL0 Copyright (c) Steve Scherf et al.
# Submitted via: CDex 1.60beta1
#
DISCID=8d0ad60a
DTITLE=高橋幸宏 - 高橋幸宏ベストセレクション
DYEAR=1990
DGENRE=Rock
TTITLE0=四月の魚 -Poisson D'Avril-
TTITLE1=Connection／コネクション
TTITLE2=The Real You／本当の君
TTITLE3=My Bright Tomorrow
TTITLE4=蜉蝣
TTITLE5=Extra-Ordinary／非・凡
TTITLE6=Are You Receiving Me ?
TTITLE7=６月の天使
TTITLE8=Sayonara／サヨナラ
TTITLE9=Good Time
EXTD=YEAR: 1990
EXTT0=
EXTT1=
EXTT2=
EXTT3=
EXTT4=
EXTT5=
EXTT6=
EXTT7=
EXTT8=
EXTT9=
PLAYORDER=
